<svg xmlns="http://www.w3.org/2000/svg" width="1280" height="720" viewBox="0 0 1280 720">
  <defs>
    <linearGradient id="bg" x1="0%" y1="0%" x2="100%" y2="100%">
      <stop offset="0%" stop-color="#0a1628"/>
      <stop offset="100%" stop-color="#12101f"/>
    </linearGradient>
    <linearGradient id="accent" x1="0%" y1="0%" x2="100%" y2="0%">
      <stop stop-color="#5EEBFF"/>
      <stop offset="1" stop-color="#FF4FD8"/>
    </linearGradient>
  </defs>
  <rect width="1280" height="720" fill="url(#bg)"/>
  <g opacity="0.15" stroke="#5EEBFF" stroke-width="1">
    <line x1="0" y1="120" x2="1280" y2="120"/><line x1="0" y1="240" x2="1280" y2="240"/>
    <line x1="0" y1="360" x2="1280" y2="360"/><line x1="0" y1="480" x2="1280" y2="480"/>
    <line x1="0" y1="600" x2="1280" y2="600"/>
    <line x1="160" y1="0" x2="160" y2="720"/><line x1="320" y1="0" x2="320" y2="720"/>
    <line x1="480" y1="0" x2="480" y2="720"/><line x1="640" y1="0" x2="640" y2="720"/>
    <line x1="800" y1="0" x2="800" y2="720"/><line x1="960" y1="0" x2="960" y2="720"/>
    <line x1="1120" y1="0" x2="1120" y2="720"/>
  </g>
  <text x="640" y="310" text-anchor="middle" font-family="Inter, system-ui, sans-serif" font-size="48" font-weight="700" fill="#F5F7FA">HitInto</text>
  <text x="640" y="370" text-anchor="middle" font-family="Inter, system-ui, sans-serif" font-size="22" fill="#A9B0C3">4-player co-op gameplay  screenshot 1</text>
  <rect x="440" y="410" width="400" height="4" fill="url(#accent)" rx="2"/>
  <text x="640" y="460" text-anchor="middle" font-family="Inter, system-ui, sans-serif" font-size="14" fill="#5EEBFF">Replace: public/projects/hitinto/01.webp</text>
</svg>
